# xmcd
#
# Track frame offsets: 
#        150
#        10320
#        22487
#        28317
#        38486
#        55290
#        66332
#        75861
#        87231
#        98264
#        109962
#        123104
#        133210
#        142373
#        152465
#        164339
#
# Disc length: 2342 seconds
#
# Revision: 0
# Processed by: cddbd v1.5.2PL0 Copyright (c) Steve Scherf et al.
# Submitted via: ExactAudioCopy v0.99pb5
#
DISCID=d3092410
DTITLE=Various Artist - Queens Of Country
DYEAR=2006
DGENRE=Country
TTITLE0=Dolly Parton - Release Me
TTITLE1=Anne Murray - All Of The Time
TTITLE2=Loretta Lynn - I Fall To Pieces
TTITLE3=Billie Jo Spears - It Makes No Difference Now
TTITLE4=Lynn Anderson - Blue Bayou
TTITLE5=Patsy Cline - A Stranger In My Arms
TTITLE6=Jeannie C Riley - The Girl Most Likely
TTITLE7=Kitty Wells - On The Lonely Side Of Town
TTITLE8=Anne Murray - The Last Thing On My Mind
TTITLE9=Barbara Fairchild - You Cant Put The City
TTITLE10=Billie Jo Spears - It Could Have Been Me
TTITLE11=Loretta Lynn - You're Lookin At Country
TTITLE12=Dolly Parton - Girl Left Alone
TTITLE13=Patsy Cline - Three Cigarettes In An Ashtray
TTITLE14=Jeannie C Riley - Country Girl
TTITLE15=Kitty Wells - Honky Tonk Waltz
EXTD=
EXTT0=
EXTT1=
EXTT2=
EXTT3=
EXTT4=
EXTT5=
EXTT6=
EXTT7=
EXTT8=
EXTT9=
EXTT10=
EXTT11=
EXTT12=
EXTT13=
EXTT14=
EXTT15=
PLAYORDER=
